<?xml version="1.0" encoding="utf-8"?>
<!-- Generator: Adobe Illustrator 23.1.0, SVG Export Plug-In . SVG Version: 6.00 Build 0)  -->
<svg version="1.1" xmlns="http://www.w3.org/2000/svg" xmlns:xlink="http://www.w3.org/1999/xlink" x="0px" y="0px"
	 viewBox="0 0 595.3 595.3" enable-background="new 0 0 595.3 595.3" xml:space="preserve">
<g id="Capa_1">
</g>
<g id="Capa_2">
	<g>
		<path fill="none" stroke="#365954" stroke-width="5.9888" stroke-miterlimit="10" d="M283.6,554.1c8.2,14.1,32.6,14.6,41.4,0.8
			c4.7-7.3,5.1-16.7,10.3-23.6c6.8-9.1,19.4-11.3,30.8-12.8c9.3-1.2,18.5-2.4,27.8-3.7c6.8-0.9,13.8-1.9,19.4-5.6
			c4.1-2.7,14.1-7.9,18.2-10.5c13-8.2-4.9-20.2-21.3-13.8c-10.8,4.2-14.5,7.2-25.7,10.1c-15.5,4-29.2,14.3-37.3,28"/>
	</g>
	<path fill="#F7B855" stroke="#F7B855" stroke-width="1.9963" stroke-miterlimit="10" d="M282.2,27.2c0,0-183-13.6-137,166.4
		c0,0,22.2,65.9,71.9,126.7c0,0,41.4,64.7,42.7,67.9c0,0,8,8.5,4.5,62.8l-3.4,67c0,0-9,27.2-1.1,30.3c0,0,12.4,5.2,22.5,5.2
		c10.1,0,22.5-5.2,22.5-5.2c7.9-3.1-1.1-30.3-1.1-30.3l-3.4-67c-2.1-55.9,4.5-62.8,4.5-62.8c2.2-5,42.7-67.9,42.7-67.9
		c50.3-60.5,71.9-126.7,71.9-126.7C465.3,13.6,282.2,27.2,282.2,27.2z M194.4,134.4c4.7-4.9,13.3-4.9,18.2,0
		c4.9,4.9,4.9,13.5,0,18.2c-4.9,4.7-13.6,4.6-18.3-0.4C189.8,147.5,189.8,139.2,194.4,134.4z M212.2,191.9c-5,4.8-12.8,4.8-17.7,0.1
		c-4.8-4.7-4.8-13.4,0-18.3c5-5,13.1-4.9,18.1,0.3C217.7,179.2,217.6,186.9,212.2,191.9z M312.4,94.9c4.9-4.9,13.2-4.6,18.2,0.5
		c5,5.1,4.8,13.1-0.4,18c-4.9,4.6-13,4.6-17.7-0.1C307.8,108.6,307.7,99.6,312.4,94.9z M312.5,134.4c4.8-4.7,13-4.8,17.9-0.2
		c5,4.7,5,13.3,0.1,18.3c-5,4.9-12.6,4.9-17.6,0C307.6,147.3,307.4,139.4,312.5,134.4z M312.5,212.7c5.1-5.2,12.8-5.4,17.9-0.4
		c4.9,4.8,4.9,13.3,0.1,18.2c-4.7,4.7-12.9,4.8-17.7,0.2C307.6,225.8,307.5,217.9,312.5,212.7z M312.9,173.5
		c4.8-4.5,13.1-4.5,17.8,0.1c4.7,4.6,4.6,13.7-0.1,18.3c-5.1,5-13.1,4.8-18.1-0.3C307.5,186.4,307.7,178.4,312.9,173.5z M273.4,94.9
		c4.9-4.7,13-4.6,17.8,0.1c5.1,4.9,4.9,13-0.3,18.1c-5.1,5-12.4,4.9-17.5-0.2C268.2,107.8,268.2,99.9,273.4,94.9z M291.2,152.3
		c-5.1,5.2-12.9,5.2-18,0.1c-4.9-5-5-13.5-0.1-18.2c4.6-4.4,13.3-4.4,18-0.1C296.1,138.6,296.1,147.4,291.2,152.3z M273,173.9
		c4.7-4.9,13.4-5,18.2-0.2c4.9,4.8,4.8,13.3-0.2,18.2c-4.9,4.8-12.6,4.9-17.6,0.1C268.4,186.9,268.1,178.9,273,173.9z M291.1,231.4
		c-4.9,4.7-13.6,4.4-18.2-0.5c-4.8-5.1-4.4-13.3,0.8-18.1c5-4.6,13-4.4,17.7,0.4C296.2,218.1,296.1,226.6,291.1,231.4z M233.8,95
		c4.6-4.7,13.8-4.6,18.4,0.1c4.4,4.6,4.4,13.2-0.1,17.9c-4.8,5.1-13.1,5.2-18.1,0.2C229.1,108.2,229,99.9,233.8,95z M233.7,134.6
		c4.8-4.9,13.4-5.1,18.2-0.4c5,4.9,4.9,13-0.2,18.1c-5.2,5.1-12.9,5.1-17.9-0.2C229.1,147.3,229,139.5,233.7,134.6z M233.7,213.2
		c4.9-5.1,13-5.1,18.1-0.1c5.1,5,5.1,13,0,18c-4.9,4.8-13.5,4.7-18.2-0.2C229.1,226.3,229.1,217.9,233.7,213.2z M233.8,173.5
		c4.7-4.6,13.1-4.6,17.8,0c5.2,4.9,5.3,12.9,0.3,18c-5.1,5.2-13,5.3-18.1,0.3C229.1,187.1,229,178.2,233.8,173.5z M319.8,310
		c-11.6,14.9-24.6,29-31.4,46.8c-0.7,1.7-6.2,2.3-6.2,2.3s-6.8,0.3-7.6-2.5c-6.6-22.8-25.4-39.4-38.9-58.7c-2.8-4-6-7.9-8.6-13
		c41.5,17.6,69.1,17.8,110.2,1.3C332.7,295.2,325.8,302.4,319.8,310z M370.1,191.9c-4.9,4.9-13,4.7-18.1-0.4
		c-5.2-5.3-5.1-12.6,0.3-17.9c4.9-4.8,12.7-4.8,17.6-0.1C374.7,178.3,374.8,187.2,370.1,191.9z M369.8,152.7
		c-4.8,4.6-13,4.7-17.8,0.1c-4.9-4.7-5-13.3-0.2-18.2c5-5.1,13.1-5.1,18.1-0.1C374.8,139.5,374.8,147.8,369.8,152.7z"/>
	<path fill="#D39A46" d="M278.1,392.8c-109.7-181.1-105.2-191-105.2-191C151.2,147.2,171.4,97,171.4,97s19.6-51.2,64.8-66.5l0,0
		c-50.8,9.4-121.6,43.4-91,163.2c0,0,19.1,59.9,71,128.3c0,0,42.2,63.1,43.5,66.4L278.1,392.8z"/>
	
		<path fill="#61ADA6" stroke="#61ADA6" stroke-width="1.9963" stroke-linecap="round" stroke-linejoin="round" stroke-miterlimit="10" d="
		M304.7,388.3c0,0-6.6,6.9-4.5,62.8l3.4,67c0,0,9,27.2,1.1,30.3c0,0-12.4,5.2-22.5,5.2s-22.5-5.2-22.5-5.2
		c-7.9-3.1,1.1-30.3,1.1-30.3l3.4-67c3.5-54.3-4.5-62.8-4.5-62.8s8.4,4.6,22.5,4.6C282.2,392.9,300,392.6,304.7,388.3z"/>
	<path fill="#42827A" stroke="#42827A" stroke-width="1.9963" stroke-miterlimit="10" d="M273.3,392.3l-1.8,160.1
		c0,0-8.8-1.5-11.7-3.5c-1-0.7-7.5-2.4-3.2-16.2c0,0,2.6-16.9,4.3-31.8c0,0,6.9-81.5,2.7-99.7l-3.7-12.8
		C259.8,388.3,266.9,391.5,273.3,392.3z"/>
	<g>
		<path fill="#42827A" d="M282.3,521.9c1.9,0.3,3.9,0.4,5.8,0.4c1.9,0,3.9-0.1,5.8-0.4c1.9-0.3,3.6-1,5.4-1.6
			c1.8-0.6,3.4-1.4,5.3-2.3l0,0c0.1,0,0.1,0,0.1,0c0,0,0,0.1,0,0.1c-1.1,1.7-2.8,3.1-4.6,4c-1.9,0.9-4,1.1-6,1.3c-2,0.1-4,0.1-6-0.1
			c-2-0.3-3.9-0.6-5.8-1.2c-0.1,0-0.1-0.1-0.1-0.1C282.2,521.9,282.2,521.9,282.3,521.9z"/>
	</g>
</g>
</svg>
